<svg version="1.2" baseProfile="tiny" xmlns="http://www.w3.org/2000/svg" width="324" height="77" viewBox="0 0 324 77"><path fill-rule="evenodd" fill="#EE3124" d="M13.3 47.2c.7-.3 6-3 10.5-8.5.8-1 .2-1.7-.8-2C16.4 35 14 31 8.7 31c-2.6 0-5 1-6.6 3-3 3.7-2.6 9.3 1 12.4 3 2.5 7.2 2.7 10.3.8M63.7 47.2c-.7-.3-6-3-10.5-8.5-.8-1-.2-1.7.8-2C60.6 35 63 31 68.4 31c2.5 0 4.8 1 6.6 3 3 3.7 2.6 9.3-1 12.4-3 2.5-7 2.7-10.3.8M39.7 49.8c2 4.2 7.6 9 9 12.3.4 1 .6 2.2.7 3.4v.5c0 6-4.8 11-10.8 11-6 0-11-5-11-10.8 0-1.6.5-3 1-4.5 1.2-2.5 6.4-7.7 8.7-12 .5-1 2-1 2.4 0M52 61.7c-.5-.7-3.8-7.5-4-14.8-.2-1.3.7-2 1.7-1.2 4.3 2.2 7.5 2.4 11.6 3.7 4.8 1 7.8 4.2 8 8.7 0 5-3.8 9-8.7 9.3-4 0-7.4-2.3-8.7-5.8M43.6 36.8c-1 1.7-3 2.8-5 2.8-2.3 0-4-1-5-2.8-.5-.6-.4-1.5.8-1 1.2.4 2.7.7 4 .7 1.6 0 3-.3 4.3-.8 1-.4 1.3.5 1 1"/><path fill-rule="evenodd" fill="#F58025" d="M25.2 61.7c.3-.7 3.7-7.5 4-14.8 0-1.3-.8-2-2-1.2C23 48 20 48.2 15.8 49.5c-4.7 1-7.7 4.2-8 8.7 0 5 3.8 9 8.8 9.3 4 0 7.4-2.3 8.7-5.8M4.5 27.2c-1.3.6-2.5-.4-2-1.5C7.7 11 21 0 38.4 0c17.6 0 30.8 11 36.2 25.5.5 1.3-.8 2.3-2 1.7-2.3-1-4.4-.8-7 0-.5 0-6.4 2-10.4 2-1.7 0-2.8-.4-3.4-.6-.5-.2-.5-.6-.4-1 .7-1.6 1-3.4 1-5.3 0-7.7-6.3-14-14-14-7.8 0-14 6.3-14 14 0 2 .2 3.7 1 5.3 0 .4 0 .8-.4 1-.6.2-1.7.5-3.4.6-4 0-10-2-10.4-2-2.5-.8-4.7-1-7 0"/><path fill-rule="evenodd" fill="#EE3124" d="M29.5 29c0-2 1.7-3.7 3.7-3.7 1 0 1.7.3 2.4.8.7.6.4 1.3-.2 1.3h-.6c-1 0-1.7.8-1.7 1.7 0 1 1 1.7 1.8 1.7h.6c.6 0 1 .7.2 1.2-.7.4-1.5.7-2.4.7-2 0-3.7-1.6-3.7-3.7M40 29c0-2 1.8-3.7 3.8-3.7 1 0 1.7.3 2.4.8.6.6.4 1.3-.2 1.3h-.6c-1 0-1.7.8-1.7 1.7 0 1 .8 1.7 1.7 1.7h.6c.6 0 1 .7.2 1.2-.7.4-1.5.7-2.4.7-2 0-3.7-1.6-3.7-3.7"/><path fill="#F58025" d="M114.2 21c0 1.8-.8 2.3-2.5 2.3s-2.5-.4-3.8-2.2c-1.4-1.7-3.6-3.4-6.8-3.4-6 0-9 5.4-9 10.7 0 6 3.5 11 9.7 11 3 0 5.2-1.6 7.2-3.7 1.2-1.2 2.5-1.6 4.3-.2 1.7 1.4 1.7 2.4.6 4-1.7 2.8-5.8 6-12.6 6-9.6 0-16.8-6.8-16.8-17 0-10.4 7.8-17 16.3-17 3.4 0 6.5 1.7 7.8 3.5v-.5c0-1.8 1-2.6 2.6-2.6h.5c1.6 0 2.2.7 2.2 2.2V21zM141 39.4c2 0 2.6.5 2.6 2.4v.3c0 2-.6 2.6-2.5 2.6h-3.4c-2.6 0-3.5-1-3.5-3.5v-.4c-1 2.5-3.4 4.5-7 4.5-5 0-8.5-3.5-8.5-10v-7.5c-1.8 0-2.3-.6-2.3-2.4v-.3c0-2 .7-2.6 2.6-2.6h3.4c2.6 0 3.5 1 3.5 3.6v10c0 2.4 1.2 4 3.7 4 3 0 4.5-1.8 4.5-4.6v-7.5h-.3c-1.6 0-2.2-.6-2.2-2.4v-.3c0-2 .7-2.6 2.6-2.6h3.5c2.6 0 3.5 1 3.5 3.6v13.8zM162 29c-2 0-2.8-.7-3.6-1.5-.7-.7-1.6-1.3-3.5-1.3-1.4 0-2.7.5-2.7 1.7 0 1 1.2 1.6 4 2.2 6 1.4 8.4 3.6 8.4 7.6 0 4-2.6 7.4-8.7 7.4-3 0-4.7-1-6-2.2 0 1.3-.7 1.6-2 1.6h-.5c-1.5 0-2-.5-2-2v-3c0-2 .6-2.4 2.4-2.4 1.5 0 2.2.4 3 1.4.5 1 1.4 1.8 3.8 1.8 1.8 0 3-.5 3-1.7 0-1-1-1.5-4.4-2.3-4-1-7.5-2.6-7.5-7.6 0-4.7 3.4-7.3 8-7.3 2.6 0 4 1 5.2 2.2.3-1.2 1-1.6 2.3-1.6h.4c1.3 0 2 .6 2 2v2.8c0 1.6-.7 2-2 2M176.4 45.5c-4.5 0-7.8-3-7.8-9v-9h-.7c-2 0-2.7-.7-2.7-2.7S166 22 168 22h.6v-4.5c0-2.6 1-3.5 3.5-3.5h.2c2.6 0 3.5 1 3.5 3.5V22h3c2 0 2.8.7 2.8 2.7s-.7 2.8-2.7 2.8h-3v9.8c0 2 .5 2.7 1.5 2.7.8 0 1.3-.5 1.8-1.3.7-.7 2-.8 2.7 0l1 1c.6 1 .5 1.8-.4 3-1.2 1.4-3 2.8-6 2.8M196 45c-7 0-12.4-4.8-12.4-11.6 0-7 5.4-11.8 12.4-11.8s12.4 5 12.4 11.8c0 6.8-5.4 11.7-12.4 11.7m0-5.4c3.2 0 5-2.6 5-6.2 0-3.7-1.8-6.3-5-6.3s-5 2.7-5 6.4c0 3.6 1.8 6.2 5 6.2M227.6 44.6c-2 0-2.5-.5-2.5-2.4v-.7c0-1.4.6-2 2-2v-8c0-2.7-.7-4-3.3-4-2.8 0-4 1.3-4 4.4v7.4c1.5 0 2 .7 2 2.2v.6c0 2-.6 2.4-2.5 2.4h-6.8c-2 0-2.5-.5-2.5-2.4v-.7c0-1.4.4-2 2.4-2v-12c-2 0-2.5-.7-2.5-2.6v-.5c0-2 .6-2.4 2.5-2.4h3.4c2.5 0 3.4.6 3.4 3.2v.7c1.4-3 3.8-4.4 6.7-4.4 3.7 0 5.6 1.6 7 4.3 1.3-2.7 3.4-4.4 7-4.4 5.5 0 8.8 3.7 8.8 10v7.8c1.8 0 2.4.7 2.4 2v.8c0 2-.6 2.4-2.5 2.4h-6.5c-2 0-2.5-.5-2.5-2.4v-.7c0-1.4.5-2 2-2v-8c0-2.7-.8-4-3.5-4-2.8 0-4 1.3-4 4.4v7.4c1.6 0 2 .7 2 2.2v.6c0 2-.5 2.4-2.4 2.4h-6.2z"/><path fill="#EE3124" d="M263.3 17.4v22h.3c2 0 2.6.7 2.6 2.6 0 2-.7 2.6-2.6 2.6h-8c-2 0-2.6-.6-2.6-2.5 0-2 .7-2.6 2.6-2.6h.3v-22h-.4c-2 0-2.6-.6-2.6-2.5v-.3c0-2 .7-2.5 2.6-2.5h8c2 0 2.6.6 2.6 2.5v.2c0 1.8-.7 2.4-2.6 2.4h-.3zM270.4 44.6c-2 0-2.5-.5-2.5-2.4v-.7c0-1.4.4-2 2.4-2v-12c-2 0-2.5-.7-2.5-2.6v-.6c0-2 .6-2.3 2.5-2.3h3.4c2.5 0 3.4.7 3.4 3.3v.5c1.3-2.7 4-4.2 7.2-4.2 5 0 8.5 3.6 8.5 10v7.8c2 0 2.5.6 2.5 2.2v.6c0 1.8-.7 2.4-2.6 2.4H286c-2 0-2.5-.5-2.5-2.4v-.7c0-1.6.5-2 2.2-2v-7.8c0-3-1.3-4.3-3.8-4.3-3 0-4.6 1.6-4.6 4.8v7.2c1.7 0 2.3.6 2.3 2.2v.6c0 2-.7 2.4-2.6 2.4h-7zM313 27.2c-2 0-2.5-.6-2.5-2.5v-.2c0-1.8.7-2.4 2.6-2.4h7.2c2 0 2.6.7 2.6 2.7s-.7 2.8-2.7 2.8h-.4L315 31l6 8.4h.4c1.8 0 2.6.5 2.6 2.4v.3c0 2-.6 2.6-2.5 2.6H314c-2 0-2.5-.5-2.5-2.5V42c0-2 .5-2.3 1.4-2.3L310 35l-3 2.4v2c1.3 0 1.8.4 1.8 2.4v.3c0 2-.6 2.6-2.5 2.6h-6.5c-2 0-2.6-.5-2.6-2.5V42c0-1.8.5-2.4 2.5-2.4v-22h-.6c-2 0-2.6-.6-2.6-2.5v-.3c0-2 .6-2.5 2.5-2.5h4.2c2.6 0 3.5 1 3.5 3.5v16.6l6.5-5h-.3z"/><g fill="#EE3124"><path d="M89.7 53.2c0-.6.2-.7.8-.7h4c4.2 0 7 2.5 7 6.4 0 3.8-2.8 6.3-7 6.3h-4c-.6 0-.8 0-.8-.7v-.2c0-.5.2-.7.8-.7h.4V54h-.5c-.6 0-.8 0-.8-.6v-.2zM93 63.6h1.4c3.4 0 4.8-1.8 4.8-4.7 0-3-1.4-4.8-4.8-4.8H93v9.4zM104.8 61.6c0 1.3 1 2.3 2.7 2.3.8 0 1.3-.3 1.8-.6.6-.4 1-.3 1.3 0 .5.6.4 1 0 1.2-.8.6-1.7 1-3 1-3.2 0-5-2-5-4.7s2-4.7 4.6-4.7c2.5 0 4 1.7 4.5 4 0 1-.2 1.3-1.2 1.3h-5.7zm4.7-1.5c0-1-.8-2-2.3-2-1.3 0-2.3.8-2.5 2h4.8zM118.6 59c-.4 0-.6 0-1-.5s-1-.7-1.6-.7c-.7 0-1.3.3-1.3 1 0 .5.5.8 1.8 1 2 .7 3.2 1.4 3.2 3 0 1.5-1 2.7-3.3 2.7-1.3 0-2-.4-2.4-1 0 .7-.3.8-.8.8s-.7 0-.7-.6v-1.5c0-.5.2-.7.7-.7.5 0 .8.2 1 .7.5.5 1 .8 2 .8.8 0 1.4-.4 1.4-1 0-.7-.5-1-2-1.2-1.5-.5-2.8-1-2.8-3 0-1.5 1.3-2.5 3-2.5 1 0 1.6.4 2 1 0-.7.4-.8.8-.8.5 0 .7 0 .7.6v1.4c0 .5 0 .6-.6.6zM123 56.5c1 0 1.3.4 1.3 1.4v5.8h.4c.6 0 .8 0 .8.7 0 .6-.2.8-.8.8h-3c-.4 0-.6-.2-.6-.7 0-.7.3-.8.8-.8h.4V58h-.3c-.7 0-1 0-1-.7 0-.6.3-.8 1-.8h1zm.2-1.4c-.7 0-1.4-.5-1.4-1.3s.7-1.3 1.4-1.3c.8 0 1.4.5 1.4 1.3s-.6 1.4-1.4 1.4M131 70c-1.8 0-3-.6-4-1.6-.4-.5-.4-.8.2-1.2.6-.4 1-.4 1.4 0 .6.8 1.3 1 2.3 1 1.6 0 2.6-.8 2.6-2.7v-1.8c-.6 1.2-1.6 1.8-3 1.8-2.4 0-4.2-2-4.2-4.6 0-2.8 1.8-4.7 4-4.7 1.6 0 2.7.8 3.2 2v-.4c0-1 .4-1.5 1.4-1.5h1c.6 0 .8.2.8.8 0 .6-.2.8-.8.8h-.3v7.3c0 3.4-2 4.7-4.7 4.7zm0-12c-1.5 0-2.5 1.2-2.5 3 0 1.6 1 2.8 2.5 2.8 1.6 0 2.6-1.2 2.6-3 0-1.6-1-2.8-2.6-2.8M138.4 65.3c-.6 0-.8-.2-.8-.7 0-.6.2-.8.8-.8h.4v-5.6h-.4c-.6 0-.8-.2-.8-.8 0-.7.2-1 .8-1h1c1 0 1.4.5 1.4 1.5v.2c.6-1.2 1.7-2 3-2 2 0 3.3 1.5 3.3 4v3.6h.5c.6 0 .7.2.7.7 0 .6 0 .8-.7.8h-2.8c-.6 0-.8-.2-.8-.7 0-.6 0-.8.7-.8h.3v-3.6c0-1.4-.6-2-1.8-2-1.4 0-2.3.7-2.3 2.3v3.3h.3c.6 0 .8.2.8.7 0 .6 0 .8-.7.8h-3zM154.4 55.4c0 .6-.3.8-1 .8h-.2c-.5 0-.8-.3-.8-.8v-1.6c0-1 .4-1.3 1.4-1.3h8.3c1 0 1.5.3 1.5 1.3v1.6c0 .6-.3.8-.8.8h-.4c-.5 0-.8-.2-.8-.8v-1.2H159v9.5h.7c.5 0 .7.2.7.8 0 .6-.2.8-.7.8h-3.5c-.6 0-.8-.2-.8-.7 0-.7.2-1 .8-1h.6v-9.4h-2.4v1.2zM163.2 61.2c-.7 0-1-.2-1-.8 0-.7.3-1 1-1h2.7c.5 0 .7.3.7 1 0 .6-.2.8-.8.8H163zM174.2 59c-.4 0-.6 0-1-.5s-1-.7-1.6-.7c-.7 0-1.3.3-1.3 1 0 .5.5.8 1.8 1 2.2.7 3.3 1.4 3.3 3 0 1.5-1 2.7-3.3 2.7-1.3 0-2-.4-2.4-1 0 .7-.3.8-.8.8s-.7 0-.7-.6v-1.5c0-.5.3-.7.8-.7s.8.2 1 .7c.5.5 1 .8 2 .8.8 0 1.4-.4 1.4-1 0-.7-.5-1-2-1.2-1.5-.5-3-1-3-3 0-1.5 1.5-2.5 3.2-2.5 1 0 1.6.4 2 1 0-.7.4-.8.8-.8.5 0 .7 0 .7.6v1.4c0 .5-.2.6-.7.6zM177.4 54h-.6c-.6 0-.7-.2-.7-.7 0-.6.2-.8.8-.8h1.3c1 0 1.5.3 1.5 1.3V58c.6-1 1.6-1.7 3-1.7 2 0 3.2 1.4 3.2 3.8V64h.4c.7 0 .8 0 .8.7 0 .6 0 .8-.7.8h-2.7c-.6 0-.8-.2-.8-.7 0-.7.2-.8.8-.8h.3v-3.6c0-1.4-.6-2-1.8-2-1.4 0-2.3.7-2.3 2.3v3.3h.4c.5 0 .7 0 .7.7 0 .6-.2.8-.8.8h-3c-.5 0-.7-.2-.7-.7 0-.7.2-.8.7-.8h.4V54zM189.6 56.5c1 0 1.3.4 1.3 1.4v5.8h.3c.6 0 .8 0 .8.7 0 .6 0 .8-.7.8h-3c-.4 0-.6-.2-.6-.7 0-.7.2-.8.7-.8h.4V58h-.4c-.5 0-.8 0-.8-.7 0-.6.3-.8.8-.8h1.2zm.2-1.4c-.7 0-1.4-.5-1.4-1.3s.7-1.3 1.4-1.3c.8 0 1.4.5 1.4 1.3s-.6 1.4-1.4 1.4M196.4 63.8h.7c.7 0 1 0 1 .7 0 .6-.3.8-1 .8h-3c-.7 0-1-.2-1-.7 0-.7.3-.8 1-.8h.2V58h-.3c-.7 0-1 0-1-.7 0-.6.3-.8 1-.8h1c1 0 1.3.4 1.3 1.4.6-1.3 1.6-1.5 2.2-1.5.7 0 1 .4 1 .8v.3c0 .5-.4.8-1 .8-1.7 0-2 .7-2 2.5v2.8zM205.7 65c-.4.3-1 .5-1.6.5-1.5 0-2.7-.7-2.7-3V58h-.5c-.6 0-.8 0-.8-.7 0-.6.2-.8.8-.8h.5v-2c0-1 .3-1.2 1-1.2 1 0 1.2.3 1.2 1v2.2h1.5c.6 0 .8.2.8.8 0 .6-.2.8-.8.8h-1.5v4.5c0 1 .3 1.4 1 1.4l.5-.4c.4-.2.6-.2 1 .2v.2c.3.4.2.7-.3 1zM213 59c-.3 0-.6 0-1-.5s-1-.7-1.5-.7c-.8 0-1.3.3-1.3 1 0 .5.4.8 1.7 1 2 .7 3 1.4 3 3 0 1.5-1 2.7-3 2.7-1.4 0-2-.4-2.5-1 0 .7-.3.8-.8.8s-.7 0-.7-.6v-1.5c0-.5.2-.7.7-.7.5 0 .8.2 1 .7.5.5 1 .8 1.8.8 1 0 1.6-.4 1.6-1 0-.7-.4-1-2-1.2-1.5-.5-2.8-1-2.8-3 0-1.5 1.4-2.5 3-2.5 1 0 1.7.4 2 1 .2-.7.4-.8 1-.8.4 0 .6 0 .6.6v1.4c0 .5 0 .6-.7.6zM226.6 65.5c-3.7 0-6.6-2.7-6.6-6.6 0-4 3-6.7 6.6-6.7 3.7 0 6.6 2.8 6.6 6.6s-3 6.5-6.6 6.5m0-1.8c2.6 0 4.4-2 4.4-4.8 0-3-1.8-4.8-4.4-4.8-2.6 0-4.4 2-4.4 4.7s1.8 4.7 4.4 4.7M235 65.3c-.5 0-.7-.2-.7-.7 0-.6.2-.8.8-.8h.5v-5.6h-.4c-.5 0-.7-.2-.7-.8 0-.7.2-1 .8-1h1.2c1 0 1.4.5 1.4 1.5v.2c.5-1.2 1.6-2 3-2 2 0 3.3 1.5 3.3 4v3.6h.2c.6 0 .8.2.8.7 0 .6-.2.8-.8.8h-2.8c-.6 0-.8-.2-.8-.7 0-.6.2-.8.8-.8h.4v-3.6c0-1.4-.7-2-2-2s-2.2.7-2.2 2.3v3.3h.4c.6 0 .8.2.8.7 0 .6-.2.8-.8.8h-3zM247 63.8V54h-.5c-.6 0-.8-.2-.8-.7 0-.6.2-.8.8-.8h1.3c1 0 1.4.3 1.4 1.3v10h.5c.5 0 .7 0 .7.7 0 .6-.2.8-.7.8h-3c-.6 0-.8-.2-.8-.7 0-.7 0-.8.7-.8h.4zM253.3 56.5c1 0 1.4.4 1.4 1.4v5.8h.4c.7 0 .8 0 .8.7 0 .6 0 .8-.7.8h-2.8c-.6 0-.8-.2-.8-.7 0-.7.2-.8.8-.8h.4V58h-.4c-.6 0-.8 0-.8-.7 0-.6.2-.8.8-.8h1zm.3-1.4c-.8 0-1.4-.5-1.4-1.3s.6-1.3 1.4-1.3c.7 0 1.3.5 1.3 1.3s-.7 1.4-1.4 1.4M257.4 65.3c-.5 0-.7-.2-.7-.7 0-.6.2-.8.7-.8h.4v-5.6h-.3c-.6 0-.8-.2-.8-.8 0-.7.2-1 .8-1h1c1 0 1.4.5 1.4 1.5v.2c.4-1.2 1.6-2 3-2 2 0 3.2 1.5 3.2 4v3.6h.4c.5 0 .7.2.7.7 0 .6-.2.8-.7.8h-3c-.4 0-.6-.2-.6-.7 0-.6.2-.8.7-.8h.4v-3.6c0-1.4-.5-2-1.7-2-1.4 0-2.3.7-2.3 2.3v3.3h.4c.5 0 .7.2.7.7 0 .6 0 .8-.6.8h-3zM270.2 61.6c.2 1.3 1 2.3 2.7 2.3.7 0 1.3-.3 1.8-.6.5-.4 1-.3 1.3 0 .5.6.5 1 0 1.2-.7.6-1.7 1-3 1-3.2 0-5-2-5-4.7s2-4.7 4.7-4.7c2.5 0 4 1.7 4.4 4 .3 1 0 1.3-1 1.3H270zM275 60c0-1-1-2-2.3-2-1.4 0-2.3.8-2.5 2h4.8z"/></g></svg>